<svg width="24" height="24" viewBox="0 0 24 24" fill="none" xmlns="http://www.w3.org/2000/svg">
<g filter="url(#filter0_i_1124_172)">
<g clip-path="url(#clip0_1124_172)">
<rect width="24" height="24" rx="8" fill="url(#paint0_linear_1124_172)"/>
<g filter="url(#filter1_d_1124_172)">
<path d="M12 4L12.6265 7.24106L14.0706 4.27259L13.8369 7.56538L16 5.0718L14.9221 8.1919L17.6569 6.34315L15.8081 9.07794L18.9282 8L16.4346 10.1631L19.7274 9.92945L16.7589 11.3735L20 12L16.7589 12.6265L19.7274 14.0706L16.4346 13.8369L18.9282 16L15.8081 14.9221L17.6569 17.6569L14.9221 15.8081L16 18.9282L13.8369 16.4346L14.0706 19.7274L12.6265 16.7589L12 20L11.3735 16.7589L9.92945 19.7274L10.1631 16.4346L8 18.9282L9.07794 15.8081L6.34315 17.6569L8.1919 14.9221L5.0718 16L7.56538 13.8369L4.27259 14.0706L7.24106 12.6265L4 12L7.24106 11.3735L4.27259 9.92945L7.56538 10.1631L5.0718 8L8.1919 9.07794L6.34315 6.34315L9.07794 8.1919L8 5.0718L10.1631 7.56538L9.92945 4.27259L11.3735 7.24106L12 4Z" fill="url(#paint1_linear_1124_172)"/>
</g>
</g>
</g>
<defs>
<filter id="filter0_i_1124_172" x="0" y="0" width="24" height="25" filterUnits="userSpaceOnUse" color-interpolation-filters="sRGB">
<feFlood flood-opacity="0" result="BackgroundImageFix"/>
<feBlend mode="normal" in="SourceGraphic" in2="BackgroundImageFix" result="shape"/>
<feColorMatrix in="SourceAlpha" type="matrix" values="0 0 0 0 0 0 0 0 0 0 0 0 0 0 0 0 0 0 127 0" result="hardAlpha"/>
<feOffset dy="1"/>
<feGaussianBlur stdDeviation="2"/>
<feComposite in2="hardAlpha" operator="arithmetic" k2="-1" k3="1"/>
<feColorMatrix type="matrix" values="0 0 0 0 0 0 0 0 0 0 0 0 0 0 0 0 0 0 0.25 0"/>
<feBlend mode="normal" in2="shape" result="effect1_innerShadow_1124_172"/>
</filter>
<filter id="filter1_d_1124_172" x="0" y="4" width="24" height="24" filterUnits="userSpaceOnUse" color-interpolation-filters="sRGB">
<feFlood flood-opacity="0" result="BackgroundImageFix"/>
<feColorMatrix in="SourceAlpha" type="matrix" values="0 0 0 0 0 0 0 0 0 0 0 0 0 0 0 0 0 0 127 0" result="hardAlpha"/>
<feOffset dy="4"/>
<feGaussianBlur stdDeviation="2"/>
<feComposite in2="hardAlpha" operator="out"/>
<feColorMatrix type="matrix" values="0 0 0 0 0.443137 0 0 0 0 0.176471 0 0 0 0 0.6 0 0 0 0.25 0"/>
<feBlend mode="normal" in2="BackgroundImageFix" result="effect1_dropShadow_1124_172"/>
<feBlend mode="normal" in="SourceGraphic" in2="effect1_dropShadow_1124_172" result="shape"/>
</filter>
<linearGradient id="paint0_linear_1124_172" x1="12" y1="0" x2="12" y2="24" gradientUnits="userSpaceOnUse">
<stop stop-color="white"/>
<stop offset="1" stop-color="#999999"/>
</linearGradient>
<linearGradient id="paint1_linear_1124_172" x1="12" y1="4" x2="12" y2="20" gradientUnits="userSpaceOnUse">
<stop stop-color="#4ACFFF"/>
<stop offset="1" stop-color="#0A475E"/>
</linearGradient>
<clipPath id="clip0_1124_172">
<rect width="24" height="24" rx="8" fill="white"/>
</clipPath>
</defs>
</svg>
