<svg width="40" height="40" viewBox="0 0 40 40" fill="none" xmlns="http://www.w3.org/2000/svg">
<path d="M35.9736 7.7998H4.80984C4.60071 7.80062 4.3938 7.84263 4.20091 7.92342C4.00802 8.0042 3.83293 8.12218 3.68563 8.27063C3.53834 8.41909 3.42174 8.59509 3.34247 8.78861C3.2632 8.98213 3.22282 9.18937 3.22365 9.39849V38.2336C3.22282 38.4427 3.2632 38.65 3.34247 38.8435C3.42174 39.037 3.53834 39.213 3.68563 39.3615C3.83293 39.5099 4.00802 39.6279 4.20091 39.7087C4.3938 39.7895 4.60071 39.8315 4.80984 39.8323H35.9736C36.1828 39.8315 36.3897 39.7895 36.5826 39.7087C36.7754 39.6279 36.9505 39.5099 37.0978 39.3615C37.2451 39.213 37.3617 39.037 37.441 38.8435C37.5203 38.65 37.5606 38.4427 37.5598 38.2336V9.39849C37.5611 8.97625 37.3949 8.57074 37.0975 8.271C36.8001 7.97126 36.3959 7.80179 35.9736 7.7998Z" fill="#76D0A9"/>
<path d="M33.9059 28.6776H6.8757C6.66674 28.6767 6.46003 28.6345 6.26735 28.5536C6.07468 28.4728 5.89981 28.3547 5.75275 28.2063C5.60569 28.0578 5.48931 27.8819 5.41026 27.6884C5.33121 27.495 5.29102 27.2879 5.29201 27.0789V1.59869C5.29102 1.38973 5.33121 1.18262 5.41026 0.989192C5.48931 0.795763 5.60569 0.619798 5.75275 0.471346C5.89981 0.322894 6.07468 0.204861 6.26735 0.123987C6.46003 0.0431134 6.66674 0.000982558 6.8757 0H33.9059C34.1149 0.000982558 34.3216 0.0431134 34.5143 0.123987C34.7069 0.204861 34.8818 0.322894 35.0289 0.471346C35.1759 0.619798 35.2923 0.795763 35.3713 0.989192C35.4504 1.18262 35.4906 1.38973 35.4896 1.59869V27.0789C35.4906 27.2879 35.4504 27.495 35.3713 27.6884C35.2923 27.8819 35.1759 28.0578 35.0289 28.2063C34.8818 28.3547 34.7069 28.4728 34.5143 28.5536C34.3216 28.6345 34.1149 28.6767 33.9059 28.6776Z" fill="#FAFAFA"/>
<path d="M5.79324 27.5853V2.10502C5.79225 1.89606 5.83244 1.68895 5.91149 1.49552C5.99055 1.30209 6.10692 1.12613 6.25398 0.977674C6.40104 0.829221 6.5759 0.711189 6.76857 0.630315C6.96125 0.549441 7.16797 0.50731 7.37693 0.506328H34.4046C34.7027 0.50782 34.9942 0.594563 35.2446 0.756318C35.1035 0.527343 34.9062 0.338241 34.6715 0.206979C34.4368 0.075716 34.1723 0.00665253 33.9034 0.00634766H6.8757C6.66674 0.00733021 6.46003 0.049461 6.26735 0.130335C6.07468 0.211209 5.89981 0.329241 5.75275 0.477694C5.60569 0.626146 5.48931 0.80211 5.41026 0.99554C5.33121 1.18897 5.29102 1.39608 5.29201 1.60503V27.0791C5.29231 27.3497 5.36127 27.6159 5.49244 27.8526C5.6236 28.0894 5.81268 28.289 6.04198 28.4327C5.88125 28.1792 5.79506 27.8855 5.79324 27.5853Z" fill="white"/>
<path d="M30.6721 5.38354H10.0967V6.556H30.6721V5.38354Z" fill="#A1A19B"/>
<path d="M30.6721 9.86084H10.0967V11.0333H30.6721V9.86084Z" fill="#A1A19B"/>
<path d="M30.6721 14.3394H10.0967V15.5118H30.6721V14.3394Z" fill="#A1A19B"/>
<path d="M30.6721 18.8169H10.0967V19.9893H30.6721V18.8169Z" fill="#A1A19B"/>
<path d="M37.5587 20.933V9.0372L35.4863 6.96729V20.933H37.5587Z" fill="#3CAF7D"/>
<path d="M39.9835 22.8416L37.7698 38.6234C37.7177 39.0037 37.5298 39.3524 37.2408 39.6051C36.9518 39.8577 36.5813 39.9974 36.1974 39.9984H4.57988C4.19602 39.9974 3.82544 39.8577 3.53647 39.6051C3.2475 39.3524 3.05961 39.0037 3.00744 38.6234L0.0163091 17.298C-0.016235 17.0722 4.85992e-05 16.842 0.0640605 16.623C0.128072 16.404 0.238323 16.2013 0.387368 16.0286C0.536414 15.8558 0.720786 15.7171 0.928038 15.6217C1.13529 15.5263 1.3606 15.4765 1.58875 15.4756H11.3534C11.7372 15.4765 12.1078 15.6162 12.3968 15.8689C12.6858 16.1216 12.8736 16.4702 12.9258 16.8505L13.3183 19.6429C13.3705 20.0232 13.5583 20.3719 13.8473 20.6245C14.1363 20.8772 14.5069 21.0169 14.8907 21.0179H38.4111C38.6393 21.0187 38.8648 21.0686 39.0721 21.1641C39.2795 21.2595 39.4639 21.3984 39.613 21.5713C39.7621 21.7442 39.8723 21.947 39.9362 22.1662C40.0001 22.3853 40.0163 22.6156 39.9835 22.8416Z" fill="#3CAF7D"/>
<path d="M32.0922 32.7336H8.68815C8.55918 32.733 8.43488 32.6853 8.33866 32.5994C8.24243 32.5135 8.18091 32.3955 8.16567 32.2674L7.87068 29.9225C7.86094 29.8479 7.86716 29.7721 7.8889 29.7002C7.91065 29.6282 7.94744 29.5616 7.99683 29.5048C8.04622 29.4481 8.10708 29.4026 8.1754 29.3711C8.24373 29.3397 8.31795 29.3231 8.39316 29.3225H32.3822C32.4574 29.3231 32.5317 29.3397 32.6 29.3711C32.6683 29.4026 32.7292 29.4481 32.7786 29.5048C32.828 29.5616 32.8647 29.6282 32.8865 29.7002C32.9082 29.7721 32.9144 29.8479 32.9047 29.9225L32.6122 32.2674C32.597 32.3951 32.5359 32.5128 32.4402 32.5986C32.3445 32.6844 32.2208 32.7324 32.0922 32.7336Z" fill="#FAFAFA"/>
</svg>
