<svg width="40" height="40" viewBox="0 0 40 40" fill="none" xmlns="http://www.w3.org/2000/svg">
<g clip-path="url(#clip0_3_550)">
<path d="M35.9736 7.7998H4.80984C4.60071 7.80062 4.3938 7.84263 4.20091 7.92342C4.00802 8.0042 3.83293 8.12218 3.68563 8.27063C3.53834 8.41909 3.42174 8.59509 3.34247 8.78861C3.2632 8.98213 3.22282 9.18937 3.22365 9.39849V38.2336C3.22282 38.4427 3.2632 38.65 3.34247 38.8435C3.42174 39.037 3.53834 39.213 3.68563 39.3615C3.83293 39.5099 4.00802 39.6279 4.20091 39.7087C4.3938 39.7895 4.60071 39.8315 4.80984 39.8323H35.9736C36.1828 39.8315 36.3897 39.7895 36.5826 39.7087C36.7754 39.6279 36.9505 39.5099 37.0978 39.3615C37.2451 39.213 37.3617 39.037 37.441 38.8435C37.5203 38.65 37.5606 38.4427 37.5598 38.2336V9.39849C37.5611 8.97625 37.3949 8.57074 37.0975 8.271C36.8001 7.97126 36.3959 7.80179 35.9736 7.7998Z" fill="#5876B7"/>
<path d="M33.9069 28.6776H6.87667C6.66771 28.6767 6.461 28.6345 6.26833 28.5536C6.07565 28.4728 5.90079 28.3547 5.75373 28.2063C5.60667 28.0578 5.49029 27.8819 5.41124 27.6884C5.33218 27.495 5.292 27.2879 5.29299 27.0789V1.59869C5.292 1.38973 5.33218 1.18262 5.41124 0.989192C5.49029 0.795763 5.60667 0.619798 5.75373 0.471346C5.90079 0.322894 6.07565 0.204861 6.26833 0.123987C6.461 0.0431134 6.66771 0.000982558 6.87667 0H33.9069C34.1158 0.000982558 34.3226 0.0431134 34.5152 0.123987C34.7079 0.204861 34.8828 0.322894 35.0298 0.471346C35.1769 0.619798 35.2933 0.795763 35.3723 0.989192C35.4514 1.18262 35.4916 1.38973 35.4906 1.59869V27.0789C35.4916 27.2879 35.4514 27.495 35.3723 27.6884C35.2933 27.8819 35.1769 28.0578 35.0298 28.2063C34.8828 28.3547 34.7079 28.4728 34.5152 28.5536C34.3226 28.6345 34.1158 28.6767 33.9069 28.6776Z" fill="#FAFAFA"/>
<path d="M5.79422 27.5853V2.10502C5.79323 1.89606 5.83342 1.68895 5.91247 1.49552C5.99152 1.30209 6.1079 1.12613 6.25496 0.977674C6.40202 0.829221 6.57687 0.711189 6.76955 0.630315C6.96223 0.549441 7.16895 0.50731 7.3779 0.506328H34.4056C34.7037 0.50782 34.9952 0.594563 35.2456 0.756318C35.1045 0.527343 34.9072 0.338241 34.6725 0.206979C34.4377 0.075716 34.1733 0.00665253 33.9044 0.00634766H6.87667C6.66771 0.00733021 6.461 0.049461 6.26833 0.130335C6.07565 0.211209 5.90079 0.329241 5.75373 0.477694C5.60667 0.626146 5.49029 0.80211 5.41124 0.99554C5.33218 1.18897 5.292 1.39608 5.29299 1.60503V27.0791C5.29329 27.3497 5.36225 27.6159 5.49341 27.8526C5.62458 28.0894 5.81365 28.289 6.04296 28.4327C5.88223 28.1792 5.79604 27.8855 5.79422 27.5853Z" fill="white"/>
<path d="M30.6729 5.38354H10.0967V6.55605H30.6729V5.38354Z" fill="#A1A19B"/>
<path d="M30.6729 9.86108H10.0967V11.0336H30.6729V9.86108Z" fill="#A1A19B"/>
<path d="M30.6729 14.3394H10.0967V15.5119H30.6729V14.3394Z" fill="#A1A19B"/>
<path d="M30.6729 18.8169H10.0967V19.9894H30.6729V18.8169Z" fill="#A1A19B"/>
<path d="M37.5588 20.9335V9.03728L35.4863 6.96729V20.9335H37.5588Z" fill="#5876B7"/>
<path d="M39.9835 22.8416L37.7698 38.6234C37.7177 39.0037 37.5298 39.3524 37.2408 39.6051C36.9518 39.8577 36.5813 39.9974 36.1974 39.9984H4.57988C4.19602 39.9974 3.82544 39.8577 3.53647 39.6051C3.2475 39.3524 3.05961 39.0037 3.00744 38.6234L0.0163091 17.298C-0.016235 17.0722 4.85992e-05 16.842 0.0640605 16.623C0.128072 16.404 0.238323 16.2013 0.387368 16.0286C0.536414 15.8558 0.720786 15.7171 0.928038 15.6217C1.13529 15.5263 1.3606 15.4765 1.58875 15.4756H11.3534C11.7372 15.4765 12.1078 15.6162 12.3968 15.8689C12.6858 16.1216 12.8736 16.4702 12.9258 16.8505L13.3183 19.6429C13.3705 20.0232 13.5583 20.3719 13.8473 20.6245C14.1363 20.8772 14.5069 21.0169 14.8907 21.0179H38.4111C38.6393 21.0187 38.8648 21.0686 39.0721 21.1641C39.2795 21.2595 39.4639 21.3984 39.613 21.5713C39.7621 21.7442 39.8723 21.947 39.9362 22.1662C40.0001 22.3853 40.0163 22.6156 39.9835 22.8416Z" fill="#5876B7"/>
<path d="M32.0932 32.7338H8.68818C8.55921 32.7331 8.43491 32.6854 8.33868 32.5995C8.24245 32.5137 8.18092 32.3956 8.16568 32.2675L7.87068 29.9225C7.86094 29.8479 7.86716 29.7722 7.8889 29.7002C7.91065 29.6282 7.94744 29.5616 7.99683 29.5049C8.04622 29.4481 8.10709 29.4026 8.17542 29.3711C8.24374 29.3397 8.31797 29.3231 8.39318 29.3225H32.3832C32.4584 29.3231 32.5326 29.3397 32.601 29.3711C32.6693 29.4026 32.7301 29.4481 32.7795 29.5049C32.8289 29.5616 32.8657 29.6282 32.8875 29.7002C32.9092 29.7722 32.9154 29.8479 32.9057 29.9225L32.6132 32.2675C32.598 32.3952 32.5368 32.5129 32.4411 32.5987C32.3454 32.6845 32.2217 32.7325 32.0932 32.7338Z" fill="#FAFAFA"/>
</g>
<defs>
<clipPath id="clip0_3_550">
<rect width="40" height="39.9985" fill="white"/>
</clipPath>
</defs>
</svg>
