<svg width="40" height="40" viewBox="0 0 40 40" fill="none" xmlns="http://www.w3.org/2000/svg">
<g clip-path="url(#clip0_3_557)">
<path d="M35.9749 7.80005H4.8099C4.60077 7.80087 4.39384 7.84288 4.20095 7.92366C4.00805 8.00445 3.83295 8.12244 3.68565 8.2709C3.53836 8.41936 3.42174 8.59537 3.34247 8.7889C3.2632 8.98242 3.22282 9.18967 3.22365 9.3988V38.2351C3.22282 38.4442 3.2632 38.6514 3.34247 38.845C3.42174 39.0385 3.53836 39.2145 3.68565 39.363C3.83295 39.5114 4.00805 39.6294 4.20095 39.7102C4.39384 39.791 4.60077 39.833 4.8099 39.8338H35.9749C36.184 39.833 36.391 39.791 36.5839 39.7102C36.7768 39.6294 36.9519 39.5114 37.0992 39.363C37.2465 39.2145 37.3631 39.0385 37.4423 38.845C37.5216 38.6514 37.562 38.4442 37.5612 38.2351V9.3988C37.5625 8.97654 37.3962 8.57101 37.0988 8.27126C36.8014 7.97151 36.3972 7.80203 35.9749 7.80005Z" fill="#DE9654"/>
<path d="M33.907 28.6788H6.87576C6.66679 28.6778 6.46007 28.6356 6.26739 28.5548C6.07471 28.4739 5.89983 28.3559 5.75277 28.2074C5.6057 28.0589 5.48932 27.883 5.41027 27.6895C5.33121 27.4961 5.29102 27.289 5.29201 27.08V1.59875C5.29102 1.38978 5.33121 1.18267 5.41027 0.989231C5.48932 0.795794 5.6057 0.619823 5.75277 0.471364C5.89983 0.322906 6.07471 0.204869 6.26739 0.123992C6.46007 0.0431151 6.66679 0.000982597 6.87576 0H33.907C34.116 0.000982597 34.3227 0.0431151 34.5154 0.123992C34.7081 0.204869 34.883 0.322906 35.03 0.471364C35.1771 0.619823 35.2935 0.795794 35.3725 0.989231C35.4516 1.18267 35.4918 1.38978 35.4908 1.59875V27.08C35.4918 27.289 35.4516 27.4961 35.3725 27.6895C35.2935 27.883 35.1771 28.0589 35.03 28.2074C34.883 28.3559 34.7081 28.4739 34.5154 28.5548C34.3227 28.6356 34.116 28.6778 33.907 28.6788Z" fill="#FAFAFA"/>
<path d="M5.79326 27.5864V2.1051C5.79227 1.89613 5.83246 1.68902 5.91152 1.49558C5.99057 1.30214 6.10695 1.12617 6.25402 0.977712C6.40109 0.829254 6.57595 0.711216 6.76863 0.630339C6.96132 0.549462 7.16804 0.50733 7.37701 0.506347H34.4058C34.7039 0.50784 34.9954 0.594586 35.2458 0.756347C35.1047 0.527363 34.9074 0.338254 34.6726 0.206987C34.4379 0.0757188 34.1735 0.00665254 33.9045 0.00634766H6.87576C6.66679 0.00733025 6.46007 0.0494627 6.26739 0.13034C6.07471 0.211217 5.89983 0.329254 5.75277 0.477712C5.6057 0.62617 5.48932 0.802142 5.41027 0.995579C5.33121 1.18902 5.29102 1.39613 5.29201 1.6051V27.0801C5.29231 27.3508 5.36128 27.6169 5.49244 27.8537C5.62361 28.0905 5.8127 28.2901 6.04201 28.4339C5.88128 28.1803 5.79508 27.8866 5.79326 27.5864Z" fill="white"/>
<path d="M30.6731 5.38379H10.0977V6.55624H30.6731V5.38379Z" fill="#A1A19B"/>
<path d="M30.6731 9.86108H10.0977V11.0335H30.6731V9.86108Z" fill="#A1A19B"/>
<path d="M30.6731 14.3401H10.0977V15.5125H30.6731V14.3401Z" fill="#A1A19B"/>
<path d="M30.6731 18.8176H10.0977V19.9901H30.6731V18.8176Z" fill="#A1A19B"/>
<path d="M37.5597 20.9332V9.03745L35.4873 6.96753V20.9332H37.5597Z" fill="#DE9654"/>
<path d="M39.9851 22.8426L37.7713 38.6251C37.7192 39.0054 37.5313 39.354 37.2423 39.6067C36.9533 39.8594 36.5827 39.9991 36.1988 40.0001H4.58006C4.19618 39.9991 3.82559 39.8594 3.53661 39.6067C3.24762 39.354 3.05973 39.0054 3.00756 38.6251L0.0163097 17.2988C-0.0162356 17.073 4.86011e-05 16.8428 0.064063 16.6238C0.128077 16.4048 0.238332 16.2021 0.387383 16.0293C0.536435 15.8566 0.720814 15.7178 0.928074 15.6224C1.13533 15.527 1.36065 15.4772 1.58881 15.4763H11.3538C11.7377 15.4773 12.1083 15.617 12.3973 15.8697C12.6863 16.1224 12.8741 16.471 12.9263 16.8513L13.3188 19.6438C13.371 20.0241 13.5589 20.3728 13.8479 20.6255C14.1368 20.8782 14.5074 21.0179 14.8913 21.0188H38.4126C38.6409 21.0197 38.8663 21.0695 39.0737 21.165C39.281 21.2605 39.4655 21.3994 39.6145 21.5723C39.7636 21.7452 39.8738 21.948 39.9378 22.1672C40.0017 22.3863 40.0178 22.6167 39.9851 22.8426Z" fill="#DE9654"/>
<path d="M32.0932 32.7349H8.68912C8.56016 32.7342 8.43586 32.6865 8.33963 32.6006C8.24341 32.5148 8.18189 32.3967 8.16664 32.2686L7.87166 29.9237C7.86192 29.8491 7.86813 29.7734 7.88988 29.7014C7.91163 29.6294 7.94841 29.5628 7.9978 29.5061C8.04719 29.4493 8.10806 29.4038 8.17638 29.3724C8.24471 29.3409 8.31893 29.3243 8.39414 29.3237H32.3832C32.4584 29.3243 32.5326 29.3409 32.601 29.3724C32.6693 29.4038 32.7301 29.4493 32.7795 29.5061C32.8289 29.5628 32.8657 29.6294 32.8875 29.7014C32.9092 29.7734 32.9154 29.8491 32.9057 29.9237L32.6132 32.2686C32.598 32.3963 32.5368 32.514 32.4411 32.5998C32.3454 32.6856 32.2218 32.7336 32.0932 32.7349Z" fill="#FAFAFA"/>
</g>
<defs>
<clipPath id="clip0_3_557">
<rect width="40" height="39.9985" fill="white"/>
</clipPath>
</defs>
</svg>
