<svg width="116" height="40" viewBox="0 0 116 40" fill="none" xmlns="http://www.w3.org/2000/svg">
<path d="M73.4978 33.3823C72.4447 32.3582 71.3356 32.5061 69.9865 32.8958C63.4291 34.7861 57.0976 28.7854 58.4247 22.0294C59.7168 15.4493 65.2502 12.3001 71.6467 14.5491C72.8467 14.9717 72.5157 14.1105 72.5187 13.6269C72.5427 9.87929 72.5237 6.13364 72.5317 2.38299C72.5317 0.443718 72.9898 0.00711307 74.9319 0.00011931C77.2031 -0.00887266 77.8321 0.487684 77.8131 2.41396C77.7231 11.9564 77.5641 21.4969 77.5501 31.0404C77.5501 32.9887 76.407 33.1975 75.0069 33.3833L73.4978 33.3823ZM63.2431 23.597C63.2264 24.2338 63.3374 24.8674 63.5696 25.4606C63.8018 26.0538 64.1505 26.5946 64.5951 27.0511C65.0397 27.5076 65.5713 27.8706 66.1585 28.1187C66.7457 28.3668 67.3767 28.495 68.0143 28.4958C68.6518 28.4965 69.2831 28.3697 69.8709 28.123C70.4586 27.8762 70.9911 27.5145 71.4367 27.059C71.8824 26.6035 72.2323 26.0635 72.4659 25.4708C72.6995 24.8782 72.812 24.2448 72.7967 23.608C72.8352 22.2905 72.3522 21.011 71.4524 20.047C70.5526 19.083 69.3087 18.5122 67.9904 18.4586C67.3372 18.473 66.6936 18.6187 66.098 18.887C65.5024 19.1553 64.9671 19.5408 64.5239 20.0204C64.0807 20.5 63.7388 21.0638 63.5185 21.6784C63.2983 22.2929 63.2043 22.9454 63.2421 23.597H63.2431Z" fill="#5876B7"/>
<path d="M89.5001 33.6851C89.0764 33.535 88.7163 33.2458 88.4785 32.8646C88.2407 32.4835 88.1394 32.0331 88.1911 31.587C88.0301 26.1459 88.6681 20.7227 88.5081 15.2835C88.46 14.9063 88.543 14.5241 88.7432 14.2007C88.9435 13.8774 89.2488 13.6325 89.6081 13.5071C90.4401 13.1964 91.4211 12.9586 92.0131 13.674C92.7671 14.5842 93.4891 14.2215 94.2961 14.0157C96.9301 13.3443 99.2551 14.0077 100.534 15.8211C101.134 16.6723 101.603 17.5565 100.66 18.5017C99.5101 19.6536 98.4201 19.8075 97.2991 18.9603C97.039 18.738 96.7297 18.5808 96.3967 18.5017C96.0638 18.4227 95.7167 18.424 95.3844 18.5057C95.0521 18.5873 94.744 18.7469 94.4857 18.9712C94.2274 19.1955 94.0263 19.4781 93.899 19.7955C93.4473 20.8531 93.2039 21.9878 93.1821 23.1375C93.0101 26.0759 93.2821 29.0253 92.9401 31.9607C92.9469 32.2833 92.8858 32.6039 92.7607 32.9014C92.6357 33.199 92.4494 33.467 92.2141 33.6881L89.5001 33.6851Z" fill="#5876B7"/>
<path d="M104.308 33.3824C103.884 33.2323 103.524 32.943 103.286 32.5619C103.049 32.1808 102.947 31.7304 102.999 31.2843C102.838 25.8431 103.476 20.42 103.316 14.9808C103.268 14.6036 103.351 14.2214 103.551 13.898C103.751 13.5746 104.057 13.3298 104.416 13.2044C105.248 12.8937 106.229 12.6559 106.816 13.3713C107.57 14.2824 108.292 13.9188 109.099 13.7129C111.733 13.0415 114.058 13.705 115.337 15.5183C115.937 16.3696 116.406 17.2538 115.463 18.1989C114.313 19.3509 113.223 19.5048 112.102 18.6575C111.842 18.4352 111.533 18.278 111.2 18.199C110.867 18.1199 110.52 18.1213 110.187 18.2029C109.855 18.2846 109.547 18.4442 109.289 18.6685C109.03 18.8928 108.829 19.1754 108.702 19.4928C108.25 20.5505 108.007 21.6851 107.985 22.8348C107.812 25.7732 108.085 28.7225 107.743 31.6579C107.75 31.9808 107.689 32.3015 107.564 32.5993C107.439 32.8971 107.252 33.1652 107.017 33.3864L104.308 33.3824Z" fill="#5876B7"/>
<path d="M83.1843 33.3823C82.848 33.2893 82.505 33.2225 82.1583 33.1825C81.9183 33.2053 81.6762 33.1742 81.4498 33.0917C81.2233 33.0091 81.0181 32.8772 80.8492 32.7053C80.6803 32.5335 80.5519 32.3262 80.4734 32.0984C80.3948 31.8707 80.3682 31.6284 80.3953 31.3891C80.3953 26.3545 80.3883 21.3191 80.4453 16.2855C80.4593 15.0247 80.9793 14.0965 82.5253 14.0935C84.4353 14.0935 85.2793 14.4522 85.3083 15.8369C85.4153 20.9634 85.3983 26.0918 85.4513 31.2232C85.4937 31.7257 85.3467 32.226 85.039 32.6258C84.7314 33.0256 84.2853 33.2961 83.7883 33.3843L83.1843 33.3823Z" fill="#5876B7"/>
<path d="M41.0606 21.1503C41.0606 19.3519 41.0606 17.5535 41.0606 15.7551C41.0666 13.9187 41.8717 13.3572 44.2608 13.4941C45.9319 13.594 46.397 14.1785 46.229 15.9459C45.9152 19.0769 45.9259 22.2318 46.261 25.3605C46.481 27.3268 47.224 28.1101 48.8952 28.152C49.7038 28.1791 50.4975 27.9291 51.1444 27.4435C51.7912 26.9579 52.2524 26.266 52.4514 25.4824C52.5245 25.0384 52.5536 24.5883 52.5384 24.1386C52.5204 21.6408 52.5874 19.1511 52.3254 16.6573C52.0394 13.9377 53.5665 12.7688 56.2357 13.5361C56.5311 13.6049 56.7988 13.761 57.004 13.9842C57.2092 14.2073 57.3422 14.4871 57.3858 14.787C57.4747 15.3281 57.5156 15.8761 57.5078 16.4245C57.5028 21.0594 56.9987 25.6782 57.3978 30.3311C57.6338 33.0816 55.8187 34.1107 53.2975 32.8129C52.9067 32.6042 52.4777 32.4769 52.0362 32.4386C51.5948 32.4003 51.1502 32.4518 50.7293 32.5901C49.5737 32.9455 48.3646 33.096 47.157 33.0347C43.4258 32.695 41.2366 30.437 41.0566 26.6893C40.9686 24.846 41.0416 22.9926 41.0416 21.1463L41.0606 21.1503Z" fill="#5876B7"/>
<path d="M82.9553 10.0772C82.4903 10.1254 82.0205 10.0703 81.5794 9.91579C81.1382 9.7613 80.7368 9.51124 80.4037 9.18355C80.0707 8.85585 79.8143 8.45862 79.6529 8.02031C79.4915 7.582 79.4292 7.11344 79.4703 6.64823C79.4498 6.15876 79.5317 5.67041 79.7108 5.21437C79.8899 4.75833 80.1623 4.34464 80.5105 3.99974C80.8587 3.65485 81.2751 3.38632 81.7331 3.21134C82.1911 3.03636 82.6806 2.95875 83.1703 2.9835C83.6232 2.97075 84.0739 3.0521 84.4937 3.22239C84.9135 3.39268 85.2934 3.64821 85.6092 3.97279C85.9251 4.29737 86.17 4.68393 86.3286 5.10801C86.4871 5.53209 86.5558 5.98445 86.5303 6.43643C86.5489 6.91369 86.4697 7.38971 86.2975 7.83528C86.1254 8.28085 85.8639 8.68657 85.5291 9.02751C85.1943 9.36846 84.7933 9.63743 84.3507 9.81793C83.9081 9.99843 83.4332 10.0867 82.9553 10.0772Z" fill="#FA7068"/>
<path d="M21.3532 17.9151C21.1982 17.4157 21.0773 16.9063 20.9911 16.3905C20.8471 14.655 20.7911 12.9116 20.6051 11.1811C20.5097 10.3001 20.3124 9.43306 20.0171 8.59745C18.955 5.57614 16.1498 4.75688 13.5816 6.69915C11.7201 8.16387 10.233 10.0488 9.24229 12.1992C7.9692 14.7969 6.88612 17.4945 5.79804 20.1771C5.31301 21.376 5.53303 22.1274 6.25208 22.6749C6.66941 22.97 7.17501 23.1141 7.68538 23.0834C8.19576 23.0527 8.6804 22.849 9.05928 22.506C9.70685 21.8729 10.2302 21.1243 10.6024 20.299C12.0585 17.2078 13.4156 14.0716 14.8607 10.9743C15.1808 10.3488 15.595 9.77603 16.0888 9.27584C16.5558 8.77629 16.9808 8.92516 17.0888 9.60954C17.1452 10.1565 17.1699 10.7063 17.1628 11.2561C17.2709 14.1855 17.3489 17.1158 17.5109 20.0412C17.5824 20.7364 17.7754 21.4138 18.0809 22.0424C18.606 23.2304 19.432 23.5841 20.5151 22.8887C21.8422 22.0374 23.0153 20.9424 24.2754 19.9913C24.7874 19.6046 25.3684 19.3099 25.9185 18.9742C26.1137 19.5257 26.2724 20.0894 26.3935 20.6617C26.5592 22.7263 27.4976 24.6527 29.0217 26.0569C31.4539 28.107 34.2351 28.0111 37.0973 27.2238C37.3084 27.149 37.5369 27.1379 37.7543 27.1919C37.3247 28.3984 36.8306 29.581 36.2742 30.7347C33.331 36.1429 28.4997 38.7765 22.6112 39.6687C18.3275 40.4673 13.8995 39.8132 10.0303 37.8104C8.44388 36.8996 6.9975 35.7645 5.73604 34.4404C3.28487 31.9606 1.22771 29.1831 0.690676 25.5903C0.133636 21.8636 -0.351398 18.1089 0.343651 14.3673C1.48973 8.20679 5.23001 4.26332 11.1524 2.35203C16.7874 0.363373 22.9632 0.552608 28.4657 2.88255C31.0511 3.88369 33.3295 5.54286 35.0749 7.69542C36.8202 9.84798 37.9718 12.4191 38.4154 15.1536C38.7111 17.2327 38.9007 19.3256 38.9834 21.424C39.0262 21.731 38.9571 22.0432 38.7888 22.3036C38.6205 22.5641 38.3641 22.7554 38.0663 22.8427C36.6902 23.3353 35.3221 23.8598 33.926 24.2884C33.5526 24.4166 33.1555 24.4607 32.763 24.4177C32.3705 24.3746 31.9924 24.2455 31.6557 24.0395C31.319 23.8335 31.032 23.5558 30.8152 23.2261C30.5985 22.8964 30.4573 22.5229 30.4018 22.1324C30.1504 20.8143 29.9655 19.4845 29.8478 18.1479C29.7108 17.0889 29.6677 16.0098 29.4327 14.9738C29.0257 13.1804 28.1176 12.7667 26.5915 13.7558C25.3184 14.5811 24.1744 15.6072 22.9813 16.5533C22.4912 16.947 22.0222 17.3546 21.3532 17.9151ZM20.3981 34.848C21.6028 34.7356 22.8006 34.5588 23.9863 34.3185C26.2489 33.9577 28.2912 32.7557 29.7037 30.9535C29.9378 30.6208 30.1648 29.9154 30.0108 29.7546C29.8342 29.6035 29.6279 29.4912 29.4051 29.425C29.1824 29.3587 28.9482 29.34 28.7177 29.3699C27.7229 29.5322 26.7483 29.8002 25.8105 30.1692C19.801 32.607 14.4407 31.6758 9.74032 27.1719C8.97183 26.3705 7.9608 25.8438 6.86312 25.6732C5.78404 25.5303 5.30101 26.0009 5.75104 26.9571C6.18053 27.9309 6.76514 28.8287 7.48216 29.6157C10.8184 33.0586 14.9397 34.7411 20.3981 34.848Z" fill="#5876B7"/>
</svg>
